<svg width="256" height="63" viewBox="0 0 256 63" fill="none" xmlns="http://www.w3.org/2000/svg">
<path d="M4.18946 9.63281C3.93164 9.66211 3.69727 9.70898 3.67383 9.73242C3.58008 9.82617 4.73438 14.5547 5.47852 17.1504C5.98242 18.9023 6.86133 21.5391 7.32422 22.6875C7.98633 24.3281 8.92383 26.0508 9.39844 26.4902C9.51563 26.6016 9.55078 26.6895 9.55078 26.8887V27.1406H9.31055C9.11719 27.1406 9.03516 27.1758 8.8711 27.3398C8.67774 27.5332 8.64258 27.6562 8.67188 28.0195C8.67774 28.1016 8.70703 28.2129 8.74219 28.2715C8.8125 28.4121 9.14063 28.6055 9.29883 28.6055C9.44531 28.6055 9.45117 28.5 9.22266 29.9531C9.04688 31.0605 8.83594 31.9336 8.64258 32.332C8.50781 32.6074 8.38477 32.7129 7.25977 33.5332C6.58008 34.0254 6.04688 34.4414 6.07617 34.4473C6.09961 34.4531 6.95508 34.2539 7.96875 34.002C8.98242 33.75 9.82031 33.5508 9.82617 33.5508C9.83203 33.5566 9.42774 34.8223 8.92969 36.3633C8.43164 37.9043 8.03321 39.1758 8.04492 39.1934C8.0625 39.2051 8.50196 38.7715 9.02344 38.2324C9.81446 37.4121 9.9668 37.2773 9.9375 37.4238C9.86719 37.8105 9.36914 41.3906 9.38672 41.4082C9.39844 41.4199 9.72656 41.1387 10.1191 40.7871C10.5117 40.4355 10.8574 40.1484 10.8867 40.1484C10.916 40.1484 10.9629 40.248 10.9863 40.3711C11.0098 40.4883 11.1035 40.793 11.2031 41.0391C11.2969 41.291 11.3613 41.5195 11.3438 41.5488C11.3262 41.5781 11.2266 41.6426 11.1211 41.6895C11.0156 41.7422 10.5586 42.0762 10.1074 42.4336C8.44336 43.752 6.93164 45.5742 5.98828 47.4082C5.47852 48.3926 5.35547 48.6738 5.44922 48.6152C5.51953 48.5742 6.08203 47.748 6.44531 47.1504C6.90235 46.4062 7.86328 45.2285 8.72461 44.3496C9.55078 43.5059 10.9512 42.3223 11.3672 42.1113C11.5664 42.0117 11.5664 42.0117 11.6602 42.1465C11.8594 42.4512 12.7852 43.6055 12.8262 43.6055C12.8496 43.6055 12.9551 43.3535 13.0605 43.0488L13.2539 42.4922L13.623 42.8848C13.8223 43.1074 14.0977 43.3594 14.2324 43.459C14.3613 43.5527 14.4727 43.6523 14.4727 43.6699C14.4727 43.6875 14.2148 43.8398 13.9043 44.0156C12.1406 44.9766 10.541 46.1719 9.34571 47.4199C7.80469 49.0371 6.51563 51.1348 5.86524 53.0977C5.57813 53.959 5.26172 55.6406 5.44336 55.3242C5.47266 55.2773 5.64258 54.8379 5.81836 54.3457C6.45117 52.6055 6.97266 51.5273 7.70508 50.4316C8.88281 48.668 10.3184 47.1797 12.0586 45.9082C12.7148 45.4277 14.2383 44.4961 14.8125 44.2266L15.1758 44.0566L15.832 44.3789C16.5527 44.7363 17.4316 45.0762 18.0234 45.2344C18.2285 45.2871 18.3984 45.3457 18.3984 45.3633C18.3984 45.3809 18.1406 45.5391 17.8301 45.7148C16.0957 46.6934 14.3965 48.0234 13.2246 49.3359C11.3145 51.4629 10.3184 53.7598 10.2129 56.2734C10.1895 56.959 10.1953 57.1992 10.2422 57.1992C10.2832 57.1992 10.3125 57.1934 10.3125 57.1816C10.3125 57.1699 10.3652 56.877 10.4297 56.5195C10.957 53.6426 12.0176 51.6738 14.2031 49.4883C15.457 48.2402 16.7754 47.25 18.5215 46.2598L19.248 45.8438L19.9863 46.0078C20.3906 46.0957 20.9531 46.2012 21.2285 46.2422C21.6504 46.3066 21.7441 46.3418 21.7734 46.4355C21.8145 46.5762 21.8496 46.5527 20.9766 47.0625C18.5449 48.4863 16.6348 50.5723 15.7559 52.7754C15.5625 53.2559 15.2695 54.5332 15.3223 54.668C15.3691 54.8027 15.4512 54.6973 15.5859 54.3164C15.7734 53.7949 16.3477 52.6113 16.6406 52.1309C17.4902 50.7422 18.9082 49.2422 20.5371 48.0234C21.0234 47.6543 22.0664 46.9453 22.1133 46.9453C22.1309 46.9453 22.2422 47.0391 22.3652 47.1504C22.9043 47.6484 23.5605 47.8711 25.8164 48.3223C26.7188 48.498 27.6621 48.7148 27.9199 48.7969C28.9805 49.1309 29.6953 49.623 29.9707 50.1973C30.1348 50.5547 30.2695 50.6543 30.5449 50.625C30.709 50.6074 30.7559 50.5664 30.8848 50.2969C31.0957 49.8633 31.5293 49.4473 32.0508 49.1777C32.7832 48.8027 33.4922 48.6035 35.2734 48.293C36.8906 48.0059 37.6348 47.7832 38.1855 47.4082L38.4375 47.2441L39.1523 47.7656C41.6719 49.5996 42.8965 50.9473 43.9453 53.0332C44.1094 53.3613 44.3262 53.8535 44.4199 54.1289C44.5898 54.5859 44.6777 54.7324 44.7422 54.6621C44.7949 54.6094 44.6484 53.8066 44.4727 53.2441C43.8105 51.0469 42.0645 48.9316 39.5801 47.3262C39.1934 47.0742 38.8535 46.8457 38.8242 46.8223C38.8008 46.7988 38.8418 46.6934 38.918 46.582C39 46.4766 39.082 46.3477 39.0996 46.2891C39.123 46.2305 39.252 46.1719 39.4746 46.125C39.6621 46.0898 40.0371 46.0078 40.3125 45.9492L40.8105 45.8379L41.4844 46.2246C42.4336 46.7754 43.916 47.7832 44.6719 48.3867C46.1074 49.541 47.4961 51.1465 48.252 52.541C48.7559 53.4668 49.2539 54.8789 49.4766 56.0273C49.5293 56.3027 49.6055 56.666 49.6348 56.8301C49.6699 57 49.7227 57.1406 49.752 57.1406C49.8457 57.1406 49.8105 56.2031 49.6875 55.4707C49.3945 53.666 48.6445 51.9375 47.4727 50.3848C46.8926 49.6172 45.7266 48.4102 44.918 47.7539C44.2383 47.1914 42.9492 46.3184 42.0996 45.8379C41.8125 45.6738 41.5898 45.5391 41.6016 45.5391C41.7715 45.5332 43.7227 44.8125 44.2324 44.5723C44.5957 44.3965 44.9297 44.25 44.9648 44.25C45.082 44.25 46.3008 44.9531 47.0742 45.4629C49.1836 46.8633 51 48.6621 52.3008 50.6367C53.0156 51.7266 53.6953 53.1504 54.2344 54.709C54.5566 55.6289 54.6328 55.6055 54.4395 54.6387C54.0527 52.7637 52.9863 50.5195 51.6387 48.7441C51.0996 48.0352 49.6875 46.5996 48.9844 46.043C48.334 45.5273 46.998 44.6426 46.248 44.2207C45.9141 44.0332 45.6445 43.8691 45.6445 43.8457C45.6445 43.8281 45.7793 43.7227 45.9375 43.6113C46.0957 43.5059 46.4004 43.2363 46.6055 43.0195L46.9805 42.6211L47.1738 43.1543C47.2734 43.4531 47.3789 43.7109 47.3965 43.7344C47.4141 43.7578 47.6953 43.4297 48.0117 43.0137C48.334 42.5977 48.6094 42.2578 48.627 42.2578C48.8262 42.2578 50.5547 43.7168 51.3047 44.5137C52.2949 45.5684 53.1445 46.6875 54.1816 48.3281C54.2871 48.4922 54.416 48.6621 54.4688 48.709C54.5566 48.7793 54.5625 48.7734 54.5215 48.6445C54.4336 48.3516 53.4668 46.6113 53.0918 46.0664C52.4766 45.1699 52.2305 44.8652 51.416 44.0098C50.7715 43.3301 49.7695 42.457 48.9609 41.8711L48.791 41.748L49.002 41.2559C49.1191 40.9863 49.2305 40.6523 49.2539 40.5117C49.2773 40.377 49.3184 40.2656 49.3477 40.2656C49.377 40.2656 49.7285 40.5586 50.1328 40.916C50.5312 41.2734 50.8594 41.5254 50.8594 41.4785C50.8594 41.3965 50.3613 37.8457 50.3027 37.541C50.2793 37.3945 50.4375 37.5352 51.2637 38.3906L52.2539 39.416L51.8613 38.0391C51.6387 37.2832 51.2695 35.9941 51.0352 35.1797C50.8008 34.3652 50.625 33.6797 50.6484 33.6621C50.666 33.6387 51.5039 33.8262 52.5117 34.0723C53.5137 34.3242 54.3457 34.5176 54.3574 34.5059C54.3691 34.4941 53.8242 34.0781 53.1445 33.5801C51.9551 32.7129 51.9023 32.6719 51.7383 32.3262C51.6445 32.1328 51.498 31.6992 51.4219 31.3594C51.2578 30.6738 51.0352 29.2324 51.0352 28.8574C51.0352 28.6348 51.0527 28.6113 51.2109 28.5762C51.416 28.5293 51.6562 28.2656 51.709 28.0195C51.791 27.6445 51.5156 27.2227 51.1406 27.1465C50.9707 27.1113 50.9473 27.082 50.9297 26.8945C50.9121 26.707 50.9531 26.625 51.2285 26.2969C52.793 24.3926 54.6504 18.9668 56.6133 10.541L56.8184 9.67969L56.666 9.63867C56.3613 9.55664 53.9531 9.59766 53.0625 9.70312C49.4004 10.125 44.8887 11.373 40.0195 13.3184L38.7012 13.8457L38.2207 13.5762C36.0703 12.3691 32.9414 11.5957 30.2051 11.6016C27.5098 11.6074 24.457 12.3633 22.3066 13.5586L21.7793 13.8516L20.4551 13.3242C15.0293 11.168 10.1426 9.87891 6.44531 9.62109C5.46094 9.55664 4.84571 9.55664 4.18946 9.63281ZM6.41602 10.9102C9.11719 11.1152 12.4922 11.8945 16.377 13.2129C18.3281 13.875 18.7031 14.0215 21.5684 15.1875L21.8379 15.2988L22.3301 15C23.6484 14.209 24.9316 13.7109 26.6777 13.3125C28.459 12.9023 29.9941 12.7793 31.4004 12.9258C34.0078 13.207 36.3223 13.9336 38.0918 15.041C38.4141 15.2402 38.5371 15.2871 38.6367 15.2461C38.7012 15.2227 39.1582 15.0352 39.6387 14.8359C43.752 13.1309 48.2227 11.7773 51.709 11.1797C52.9102 10.9746 55.2539 10.7812 55.2539 10.8867C55.2539 10.916 55.0723 11.6777 54.8496 12.5801C53.6367 17.4902 52.3418 21.5039 51.2402 23.7715C50.7129 24.8496 50.4199 25.3125 49.9746 25.7402L49.6289 26.0742V26.5781V27.082H47.4961H45.3691L45.334 26.4492C45.3105 26.1035 45.2812 25.7637 45.2578 25.6934L45.2227 25.5586L41.7246 25.5469L38.2324 25.5293L38.8535 25.3945C39.9375 25.1602 40.8105 25.084 42.4512 25.084C43.2891 25.084 44.5488 25.125 45.2578 25.1777C45.9609 25.2246 46.5645 25.248 46.5938 25.2305C46.6875 25.1719 46.5703 25.1074 46.1426 24.9844C45.2754 24.7324 44.3086 24.5859 42.9844 24.5039C40.8516 24.3691 38.8418 24.6797 37.5059 25.3477L37.0898 25.5586H36.1699H35.2441L35.4199 25.4062C36.1699 24.7734 37.7871 23.9121 38.9883 23.5137C40.4648 23.0215 41.5312 22.8633 43.5938 22.8223C44.4785 22.8047 45.2402 22.7695 45.2871 22.7461C45.375 22.6992 44.8652 22.5586 44.1504 22.4414C43.4238 22.3242 41.3086 22.3418 40.5762 22.4766C38.959 22.7695 37.7988 23.209 36.4863 24.0234C35.9766 24.334 35.1035 25.0254 34.8105 25.3477L34.6699 25.5H33.4512C32.0332 25.5 32.1855 25.4004 32.127 26.3906L32.0918 27.0234H30.4629H28.8398L28.8047 26.6836C28.7871 26.502 28.7578 26.1562 28.7344 25.9219L28.6992 25.5H26.8828H25.0723L24.6094 25.0781C23.0918 23.7012 21.5508 22.9512 19.3945 22.5293C18.6914 22.3945 18.457 22.377 17.3145 22.3711C16.0313 22.3652 15.5215 22.4121 14.7246 22.6113C14.5195 22.6582 14.3555 22.7227 14.3555 22.752C14.3555 22.7812 14.9355 22.8047 15.6387 22.8047C18.375 22.8047 20.332 23.1973 22.248 24.1289C22.8691 24.4336 24.2227 25.2832 24.375 25.4707C24.4395 25.5469 24.3398 25.5586 23.5313 25.5586H22.6172L22.2012 25.3477C20.8652 24.6797 18.8555 24.3691 16.7227 24.5039C15.334 24.5918 14.3965 24.7383 13.4766 25.0137C12.7207 25.2363 12.9609 25.2773 14.4492 25.1777C17.2852 24.9785 19.8047 25.0898 21.1816 25.4648C21.4395 25.541 21.1465 25.5469 18.5684 25.5527L15.6621 25.5586L15.5918 26.0742C15.5566 26.3613 15.5273 26.7012 15.5273 26.8359V27.082L13.1426 27.0703L10.752 27.0527L10.7344 26.5605L10.7168 26.0684L10.4063 25.7637C10.2305 25.5996 9.95508 25.2598 9.79102 25.0078C8.60156 23.1855 7.03711 18.6211 5.53711 12.6094C5.32617 11.7539 5.13867 11.0098 5.1211 10.9512C5.08008 10.8281 5.22071 10.8223 6.41602 10.9102ZM27.6387 27.2988C27.6973 27.4453 27.7441 27.7734 27.7617 28.2246C27.7969 29.0801 27.6738 29.6543 27.2988 30.4219C26.8594 31.3184 25.9805 32.0508 25.1133 32.2441C24.7969 32.3145 24.5742 32.2852 24.6328 32.1855C24.6563 32.1562 24.873 31.9863 25.125 31.8105C26.2559 31.0195 26.8711 29.959 27.2109 28.2363C27.2871 27.8438 27.3691 27.4219 27.3926 27.2988C27.4102 27.1816 27.4512 27.082 27.4863 27.082C27.5156 27.082 27.5859 27.1816 27.6387 27.2988ZM44.291 27.3809C44.3438 27.5449 44.373 27.9141 44.3789 28.4004C44.3848 29.0449 44.3613 29.2266 44.25 29.6016C43.8867 30.7559 43.2539 31.5586 42.3574 31.998C41.8594 32.2441 41.3203 32.3438 41.2676 32.2031C41.2559 32.168 41.4668 31.9746 41.7422 31.7812C42.9609 30.8906 43.5645 29.8184 43.8926 27.9727C43.957 27.5977 44.0215 27.2402 44.0391 27.1816C44.0918 27.0117 44.1973 27.0996 44.291 27.3809ZM15.6035 29.4375C15.6973 31.5 16.5996 33.1172 18.0586 33.8555C18.668 34.166 18.7559 34.1719 22.2363 34.1719C25.7695 34.1719 25.7461 34.1719 26.4844 33.8145C27.0645 33.5332 27.8379 32.7246 28.1953 32.0273C28.5996 31.248 28.7637 30.6211 28.8457 29.5547L28.9102 28.6641H30.5391H32.168V29.2734C32.168 31.6113 33.3926 33.5449 35.209 34.0781C35.4844 34.1602 35.9766 34.1719 38.8125 34.1719H42.0996L42.5801 34.002C44.2852 33.4102 45.4102 31.5293 45.4102 29.2734V28.6641H47.6074C48.8145 28.6641 49.8047 28.6875 49.8047 28.7109C49.8047 29.1855 50.209 31.5645 50.3613 32.0039C50.4082 32.1445 50.4492 32.2734 50.4492 32.2969C50.4492 32.3203 50.0918 32.25 49.6523 32.1387C49.2129 32.0332 48.8438 31.9512 48.8262 31.9688C48.8145 31.9805 48.9727 32.5664 49.1895 33.2637C49.4004 33.9609 49.5645 34.5469 49.5527 34.5586C49.541 34.5762 49.3535 34.4004 49.1367 34.166C48.8145 33.8145 48.75 33.7676 48.75 33.8848C48.7559 33.9609 48.8965 34.998 49.0664 36.1934C49.2363 37.3828 49.377 38.3672 49.3711 38.373C49.3652 38.3789 48.9844 38.0566 48.5215 37.6523C48.0586 37.2539 47.6719 36.9258 47.666 36.9258C47.6602 36.9258 47.7949 37.4121 47.9648 38.0098C48.1875 38.7715 48.2812 39.1992 48.2812 39.4395C48.2812 39.8086 48.1113 40.5586 47.959 40.8574C47.8652 41.0391 47.8594 41.0391 47.7598 40.9336C47.7012 40.8691 47.3672 40.043 47.0215 39.0938C46.6699 38.1445 46.377 37.3535 46.3652 37.3359C46.3535 37.3242 46.3477 37.9805 46.3477 38.8008C46.3535 39.6211 46.3359 40.2891 46.3066 40.2832C46.2832 40.2715 45.9199 40.1484 45.498 40.0078C44.4316 39.6445 42.9434 39.2871 42.041 39.1816C41.1504 39.0762 39.9141 39.0703 38.6719 39.1582L37.7871 39.2168L37.1309 38.7832C36.2168 38.1738 35.1328 37.5703 34.3184 37.207C33.9023 37.0195 33.498 36.791 33.2871 36.6211C32.0508 35.625 31.1719 33.2988 30.791 30.041C30.7441 29.625 30.7031 29.25 30.7031 29.209C30.7031 29.168 30.6387 29.0918 30.5566 29.0391C30.4277 28.9512 30.3984 28.9512 30.2754 29.0332C30.1582 29.1094 30.1348 29.2031 30.041 30.0176C29.8594 31.6465 29.4727 33.2988 29.0039 34.4414C28.6465 35.3203 28.3184 35.8477 27.832 36.3457C27.4395 36.75 27.3164 36.832 26.6309 37.1602C25.623 37.6406 24.6328 38.209 23.7012 38.8301L22.9395 39.3398L22.4414 39.2754C20.8242 39.0762 19.377 39.0527 17.9004 39.2109C16.7988 39.3281 15.2285 39.6855 14.373 40.0195L14.0625 40.1367V39.9902C14.0625 39.9082 14.1152 39.1582 14.1855 38.3203C14.25 37.4824 14.2969 36.7266 14.2852 36.6387C14.2734 36.5391 14.0039 37.207 13.5059 38.5605C12.75 40.6113 12.6152 40.8867 12.4277 40.7637C12.3926 40.7461 12.2988 40.5176 12.2168 40.2598C11.9766 39.4922 12.0059 39.2051 12.4453 37.875L12.8262 36.7441L12.2988 37.2305C11.1035 38.3379 11.0742 38.3613 11.0742 38.209C11.0801 38.1328 11.2207 37.0957 11.3906 35.9121L11.7012 33.7559L11.2617 34.1836C11.0215 34.418 10.8398 34.5645 10.8574 34.5059C11.1035 33.7969 11.666 31.9863 11.6426 31.9688C11.6309 31.9512 11.2559 32.0332 10.8164 32.1445C10.1836 32.3027 10.0195 32.3262 10.043 32.2559C10.2129 31.8223 10.5 30.3281 10.6055 29.3203L10.6816 28.6641H13.125H15.5684L15.6035 29.4375ZM31.0254 34.0254C31.2773 34.7812 31.9453 36.0879 32.3086 36.5391C32.8125 37.166 33.1641 37.4297 34.043 37.8457C34.8164 38.2148 36.4219 39.1348 36.7676 39.4102L36.9375 39.5508L36.6035 39.6211C36.416 39.668 36.2227 39.7383 36.1641 39.7793C36.0762 39.8496 36.1523 39.8555 36.6797 39.8262L37.2949 39.791L37.9102 40.2539C38.25 40.5117 38.6191 40.8164 38.7246 40.9336L38.9297 41.1445H38.6777C38.3379 41.1445 38.2031 41.2266 38.2031 41.4375C38.2031 41.6426 38.2383 41.6367 37.4707 41.5254C36.9023 41.4434 35.9766 41.4141 36.1523 41.4844C36.1992 41.502 36.7383 41.625 37.3477 41.7539L38.4551 41.9941L38.7656 42.5508C38.9355 42.8555 39.0762 43.125 39.082 43.1426C39.082 43.1602 38.9707 43.1719 38.8359 43.1719C38.625 43.166 38.5781 43.1895 38.5137 43.3184C38.4492 43.4473 38.4551 43.5234 38.5547 43.8105C38.6602 44.1211 38.7012 44.3672 38.6543 44.3672C38.6426 44.3672 38.4785 44.3145 38.2852 44.25C37.4297 43.9512 36.1172 43.6172 36.0586 43.6816C36.041 43.6992 36.4043 43.8691 36.8672 44.0625C37.3301 44.2559 37.9395 44.5254 38.2266 44.6543L38.748 44.8945L38.7188 45.293C38.7012 45.5566 38.6367 45.7852 38.5371 45.9844C38.3027 46.4531 38.291 46.4531 37.7109 46.1895C36.7969 45.7676 36.0059 45.5273 36.1172 45.709C36.1406 45.7383 36.5039 45.9785 36.9316 46.248C37.3535 46.5117 37.7285 46.7461 37.7578 46.7754C37.8281 46.8398 37.4004 47.0391 36.832 47.2031C36.5566 47.2852 35.7949 47.4434 35.1445 47.5605C32.5898 48.0117 31.541 48.4043 30.7383 49.207L30.4043 49.541L30.1992 49.3008C29.9297 48.9844 29.25 48.5332 28.6934 48.3047C28.0898 48.0469 27.1289 47.8125 25.8398 47.5898C24.0996 47.2969 23.3203 47.0566 22.8633 46.6699L22.6699 46.5059L23.1973 46.1953C23.4902 46.0195 23.7891 45.8262 23.8594 45.7676L23.9941 45.6504L23.7598 45.6855C23.6309 45.709 23.3145 45.8145 23.0566 45.9258C22.7988 46.043 22.5469 46.1367 22.5 46.1426C22.2891 46.166 22.0254 45.252 22.0781 44.6602C22.0957 44.4551 22.1074 44.4492 22.6641 44.2207C24.3105 43.5586 24.3457 43.4004 22.7402 43.8809C22.4766 43.957 22.2422 44.0098 22.2305 43.998C22.2129 43.9805 22.2539 43.834 22.3184 43.6641C22.3828 43.5 22.4238 43.3301 22.4063 43.2891C22.3535 43.1543 22.1074 43.0605 21.9141 43.0957C21.7031 43.1426 21.6797 43.2012 22.2012 42.3457L22.5586 41.7598L23.1797 41.6309C24.0879 41.4375 24.1348 41.3672 23.3379 41.4023C22.9746 41.4199 22.6758 41.4141 22.6758 41.3906C22.6758 41.3613 22.623 41.2852 22.5586 41.2148C22.4648 41.1211 22.3652 41.0859 22.1602 41.0859L21.8848 41.0801L22.1719 40.8164C22.3242 40.6758 22.6816 40.3887 22.9629 40.1777C23.4023 39.8496 23.502 39.7969 23.7305 39.7969C23.9766 39.791 23.9883 39.791 23.8594 39.7148C23.7246 39.6445 23.7363 39.627 24.2695 39.2871C25.0254 38.7949 26.0391 38.2266 26.9297 37.793C27.5684 37.4824 27.7559 37.3594 28.1367 36.9961C29.0742 36.0996 29.8418 34.5176 30.2285 32.6777C30.2988 32.3555 30.3691 32.0273 30.3867 31.9453C30.4102 31.8398 30.4863 32.0508 30.6445 32.6777C30.7676 33.1582 30.9375 33.7676 31.0254 34.0254ZM41.8945 39.7324C42.8848 39.8848 43.8398 40.0957 44.707 40.3535C45.4102 40.5586 46.3828 40.9395 46.4414 41.0332C46.4824 41.1094 46.2129 41.5898 45.9023 41.9824C45.6211 42.3457 45.1641 42.7324 44.6309 43.0547L44.2969 43.2598L43.4883 42.9434C42.5098 42.5508 41.3086 42.1582 40.2598 41.8828C39.832 41.7715 39.4629 41.6602 39.4453 41.6426C39.4277 41.625 39.5098 41.6133 39.6328 41.6133C39.8027 41.6133 39.8613 41.584 39.9082 41.4727C39.9492 41.3906 39.9609 41.2617 39.9375 41.1797C39.8906 41.0039 39.3281 40.3828 38.7656 39.8965L38.3555 39.5449L39.7324 39.5801C40.6875 39.6035 41.3438 39.6504 41.8945 39.7324ZM22.4648 39.668C22.4824 39.6973 22.3242 39.8613 22.1074 40.0371C21.668 40.4004 21.0469 41.1094 21 41.3027C20.9766 41.3789 21.0059 41.4961 21.0527 41.5781L21.1465 41.7188L20.7832 41.7832C19.6875 41.9941 17.9941 42.5039 16.7402 43.002L15.9375 43.3242L15.5332 43.0254C14.6953 42.4043 13.9688 41.4492 14.0156 41.0449C14.0332 40.916 14.0977 40.8691 14.4727 40.7227C15.8262 40.2012 17.7598 39.8086 19.6875 39.6621C20.2734 39.6152 22.4355 39.627 22.4648 39.668ZM21.6797 41.9883C21.6797 42 21.4922 42.3398 21.2637 42.75C20.9473 43.3184 20.8535 43.5352 20.8711 43.6816C20.8887 43.8691 20.8945 43.8691 21.2344 43.8867L21.5742 43.9043L21.5391 44.0918C21.4922 44.332 21.4219 44.3789 20.7949 44.625L20.2793 44.8242L19.1191 44.4551C17.8828 44.0625 17.2676 43.8457 16.8691 43.6641L16.623 43.5586L16.8516 43.459C17.7949 43.0605 19.2422 42.5742 20.4785 42.2402C21.4863 41.9648 21.6797 41.9238 21.6797 41.9883ZM40.4766 42.3574C41.0977 42.5391 42.7969 43.1543 43.3887 43.4062L43.623 43.5L43.2363 43.6934C42.7148 43.957 41.8066 44.2734 40.7637 44.543C39.9316 44.7598 39.8848 44.7656 39.6973 44.6777C39.5391 44.6016 39.498 44.543 39.4688 44.3438C39.4453 44.2148 39.416 44.0215 39.3984 43.9277L39.3691 43.752H39.709C40.0195 43.752 40.0488 43.7402 40.1016 43.5996C40.1543 43.4414 40.043 43.2012 39.4746 42.2637L39.3574 42.0645L39.5742 42.1055C39.6914 42.1289 40.1016 42.2402 40.4766 42.3574ZM21.4922 44.8125C21.4805 44.8594 21.457 44.9004 21.4336 44.9004C21.4043 44.8945 21.3281 44.8945 21.2578 44.8945C21.123 44.8887 21.123 44.8887 21.2695 44.8066C21.4629 44.6953 21.5156 44.7012 21.4922 44.8125Z" fill="#FF9933"/>
<path d="M6.65038 11.918C6.6621 11.9942 6.74413 12.3692 6.82031 12.7559C7.17773 14.502 7.34179 15.1289 7.45312 15.1289C7.51757 15.1289 7.49413 14.8418 7.31835 13.5879C7.16601 12.4981 7.17187 12.3106 7.35937 12.4863C7.38867 12.5156 7.63476 12.627 7.91015 12.7383C8.1914 12.8496 9.9082 13.8047 11.8359 14.918C13.7226 16.0078 15.2695 16.9043 15.2812 16.916C15.293 16.9219 15.1523 17.1973 14.9707 17.5254L14.6426 18.1113L13.8105 17.6953C13.3535 17.4668 12.9492 17.2383 12.9082 17.1856C12.8203 17.0801 12.8262 17.1387 12.9844 18.4102C13.1777 19.9863 13.3066 21.1524 13.3418 21.5801L13.3769 22.0254L12.9434 22.5762C12.709 22.8809 12.3867 23.2793 12.2344 23.4668C11.918 23.8477 11.8125 24.0293 11.8594 24.082C11.9121 24.1289 12.8027 23.2442 13.3359 22.6172C13.8457 22.0195 13.8164 22.1953 13.6875 20.2559C13.6406 19.6113 13.6172 19.0723 13.6289 19.0606C13.6406 19.0488 13.8574 19.2363 14.1094 19.4766C14.4141 19.7637 14.6543 19.9336 14.8066 19.9805C15.2168 20.1035 15.3223 20.0742 15.6211 19.7578C15.9785 19.3828 17.209 18.4453 18.498 17.5664C19.0547 17.1914 19.5234 16.8574 19.541 16.8281C19.5762 16.7695 18.8965 16.2422 18.7851 16.2422C18.75 16.2422 18.3105 16.0547 17.8125 15.8262C16.4414 15.1992 14.3965 14.4024 11.9824 13.5586C10.0723 12.8848 6.76757 11.7891 6.65624 11.7891C6.63867 11.7891 6.63281 11.8477 6.65038 11.918Z" fill="#FF9933"/>
<path d="M52.2656 12.3398C48.5098 13.541 43.8047 15.3223 41.9883 16.2188C41.3086 16.5586 40.6992 16.9746 40.752 17.0625C40.7695 17.0977 40.9629 17.2441 41.1797 17.3965C42.8438 18.5625 44.1563 19.5527 44.4902 19.8926C45.0996 20.5137 45.3399 20.4902 46.2539 19.7168L46.7168 19.3242L46.6817 19.6172C46.6582 19.7754 46.6113 20.4492 46.5762 21.1172L46.5059 22.3242L47.0918 22.9922C47.625 23.5957 48.457 24.3926 48.457 24.2988C48.457 24.2813 48.3809 24.1465 48.2813 24.0059C48.1875 23.8652 48.1055 23.6953 48.1055 23.625C48.1055 23.4434 47.959 23.1855 47.5137 22.6055C47.0567 22.0078 47.0625 22.0371 47.1973 21.0176C47.2442 20.6602 47.332 19.8164 47.4024 19.1426C47.4668 18.4629 47.5371 17.8184 47.5547 17.707C47.5723 17.5957 47.6016 17.4199 47.6133 17.3262C47.6426 17.168 47.6367 17.1621 47.5606 17.2559C47.4434 17.4023 45.8731 18.1934 45.8203 18.1348C45.7969 18.1113 45.6445 17.8359 45.4805 17.5313L45.1817 16.9746L45.3985 16.8516C45.5156 16.7871 47.0801 15.8848 48.8789 14.8477C50.6719 13.8105 52.3477 12.8848 52.5996 12.7852C52.8516 12.6855 53.1035 12.5801 53.1621 12.5508C53.25 12.498 53.2617 12.5156 53.2617 12.709C53.2617 12.832 53.2207 13.2012 53.1738 13.5352C53.0567 14.3438 53.0039 15.3047 53.0742 15.1875C53.1738 15.041 53.4258 14.0391 53.6426 12.9434C53.7539 12.3633 53.8477 11.8828 53.8477 11.8711C53.8477 11.8301 53.8067 11.8418 52.2656 12.3398Z" fill="#FF9933"/>
<path d="M26.9531 15.2285C26.9531 15.2812 27.2812 16.1426 27.6797 17.1445C28.7285 19.7695 29.1328 20.9707 29.6367 22.916C29.7891 23.5137 29.9473 24.0059 29.9883 24.0234C30.1699 24.082 30.0176 22.2598 29.7363 21.1055C29.2266 19.0195 28.2188 16.6875 27.2871 15.4336C27.0469 15.1172 26.9531 15.0586 26.9531 15.2285Z" fill="#FF9933"/>
<path d="M33.2226 15.5215C32.2734 16.8164 31.3594 19.3008 31.1191 21.2813C31.0078 22.1602 31.0605 22.7695 31.2187 22.4707C31.2539 22.4121 31.4414 21.8086 31.6347 21.1348C32.0273 19.7637 32.7304 17.6777 33.2695 16.3008C33.7207 15.1406 33.7207 15.1289 33.6094 15.1289C33.5566 15.1289 33.3808 15.3047 33.2226 15.5215Z" fill="#FF9933"/>
<path d="M27.2227 38.5664C27.129 38.5957 26.9942 38.6777 26.918 38.7481C26.6602 38.9883 26.7715 39.6797 27.0997 39.8555C27.2344 39.9258 27.5684 39.9141 27.7794 39.8262C27.8497 39.8027 27.9376 39.9082 28.1602 40.3066C28.5176 40.9453 29.1387 41.6016 29.5489 41.7656L29.8243 41.877L29.8126 43.1367L29.795 44.3965L28.0372 44.4316C26.3145 44.4668 25.5118 44.5547 25.3477 44.7188C25.2422 44.8242 25.711 44.9531 26.5313 45.041C27.4805 45.1406 32.0743 45.1582 33.4805 45.0703C34.6993 44.9883 35.2735 44.8711 35.127 44.7246C34.9688 44.5664 33.9844 44.4668 32.3438 44.4316L30.6739 44.3965L30.6563 43.1543L30.6446 41.9063L30.9844 41.7363C31.4473 41.502 32.0215 40.875 32.3438 40.2598C32.5372 39.8906 32.6075 39.7969 32.6837 39.8262C33.2813 40.0606 33.6915 39.8027 33.6915 39.1934C33.6915 38.8184 33.627 38.7129 33.3106 38.5898C32.9415 38.4492 31.9102 38.502 30.9434 38.7129L30.2227 38.8652L29.6837 38.7481C28.6231 38.5078 27.6563 38.4375 27.2227 38.5664Z" fill="#FF9933"/>
<path d="M80.24 45L77.56 35.4H74.6V45H69.08V17.48H78.36C80.3333 17.48 81.8133 17.8133 82.8 18.48C83.8133 19.1467 84.4933 20.1067 84.84 21.36C85.1867 22.6133 85.36 24.2933 85.36 26.4C85.36 28.4 85.1733 30.0533 84.8 31.36C84.4533 32.6667 83.7333 33.6533 82.64 34.32L85.96 45H80.24ZM77.04 30.64C77.92 30.64 78.5467 30.5467 78.92 30.36C79.2933 30.1467 79.5333 29.7733 79.64 29.24C79.7733 28.68 79.84 27.7467 79.84 26.44C79.84 25.16 79.7733 24.2533 79.64 23.72C79.5333 23.1867 79.2933 22.8267 78.92 22.64C78.5467 22.4267 77.92 22.32 77.04 22.32H74.6V30.64H77.04ZM88.8456 45V17.48H102.206V22.32H94.3656V28.68H101.126V33.52H94.3656V40.16H102.206V45H88.8456ZM117.242 45L113.682 35.12H113.362L109.842 45H104.082L109.842 31.16L104.162 17.48H110.082L113.562 26.96H113.842L117.322 17.48H123.082L117.482 31L123.202 45H117.242ZM125.681 45V39.72H131.321V45H125.681ZM148.048 44.64C147.488 44.8267 146.755 44.9867 145.848 45.12C144.968 45.2533 144.128 45.32 143.328 45.32C140.821 45.32 138.981 44.9067 137.808 44.08C136.635 43.2533 135.848 41.88 135.448 39.96C135.075 38.04 134.888 35.1333 134.888 31.24C134.888 27.3733 135.088 24.48 135.488 22.56C135.888 20.6133 136.675 19.2267 137.848 18.4C139.048 17.5733 140.875 17.16 143.328 17.16C144.208 17.16 145.075 17.2267 145.928 17.36C146.808 17.4667 147.488 17.6133 147.968 17.8V22.28C146.421 22.0933 145.248 22 144.448 22C143.088 22 142.141 22.1867 141.608 22.56C141.101 22.9067 140.768 23.6667 140.608 24.84C140.475 26.0133 140.408 28.1467 140.408 31.24C140.408 34.3333 140.475 36.4667 140.608 37.64C140.768 38.8133 141.101 39.5867 141.608 39.96C142.141 40.3067 143.088 40.48 144.448 40.48C145.675 40.48 146.875 40.3867 148.048 40.2V44.64ZM162.428 45L159.747 35.4H156.788V45H151.268V17.48H160.548C162.521 17.48 164.001 17.8133 164.988 18.48C166.001 19.1467 166.681 20.1067 167.028 21.36C167.374 22.6133 167.548 24.2933 167.548 26.4C167.548 28.4 167.361 30.0533 166.988 31.36C166.641 32.6667 165.921 33.6533 164.828 34.32L168.148 45H162.428ZM159.228 30.64C160.108 30.64 160.734 30.5467 161.108 30.36C161.481 30.1467 161.721 29.7733 161.828 29.24C161.961 28.68 162.028 27.7467 162.028 26.44C162.028 25.16 161.961 24.2533 161.828 23.72C161.721 23.1867 161.481 22.8267 161.108 22.64C160.734 22.4267 160.108 22.32 159.228 22.32H156.788V30.64H159.228ZM171.033 45V17.48H184.393V22.32H176.553V28.68H183.313V33.52H176.553V40.16H184.393V45H171.033ZM199.909 45L198.829 39.36H192.669L191.589 45H186.109L191.789 17.48H199.829L205.509 45H199.909ZM195.869 22.68H195.629L193.469 34.6H197.989L195.869 22.68ZM210.139 45V22.48H204.939V17.48H220.859V22.48H215.659V45H210.139ZM223.338 45V17.48H236.698V22.32H228.858V28.68H235.618V33.52H228.858V40.16H236.698V45H223.338ZM246.934 45.32C245.814 45.32 244.587 45.2533 243.254 45.12C241.947 45.0133 240.787 44.8533 239.774 44.64V40.16C242.494 40.3733 244.374 40.48 245.414 40.48C246.347 40.48 247.054 40.4267 247.534 40.32C248.014 40.2133 248.374 40.0267 248.614 39.76C248.827 39.5467 248.96 39.2533 249.014 38.88C249.094 38.48 249.134 37.92 249.134 37.2C249.134 36.2133 249.08 35.52 248.974 35.12C248.867 34.6933 248.64 34.3867 248.294 34.2C247.974 33.9867 247.4 33.8 246.574 33.64L242.814 32.96C241.48 32.72 240.56 31.9867 240.054 30.76C239.547 29.5333 239.294 27.76 239.294 25.44C239.294 23.1733 239.614 21.44 240.254 20.24C240.92 19.04 241.827 18.2267 242.974 17.8C244.12 17.3733 245.574 17.16 247.334 17.16C248.56 17.16 249.734 17.24 250.854 17.4C252 17.56 252.934 17.72 253.654 17.88V22.36C252.214 22.12 250.6 22 248.814 22C247.854 22 247.107 22.04 246.574 22.12C246.067 22.2 245.694 22.3467 245.454 22.56C245.16 22.7733 244.974 23.08 244.894 23.48C244.814 23.88 244.774 24.4667 244.774 25.24C244.774 26.0667 244.814 26.6667 244.894 27.04C245 27.4133 245.174 27.68 245.414 27.84C245.654 28 246.067 28.1333 246.654 28.24L250.174 28.88C251.107 29.0133 251.894 29.3067 252.534 29.76C253.2 30.1867 253.72 30.9067 254.094 31.92C254.467 32.9867 254.654 34.4933 254.654 36.44C254.654 38.9733 254.347 40.88 253.734 42.16C253.12 43.44 252.267 44.2933 251.174 44.72C250.107 45.12 248.694 45.32 246.934 45.32Z" fill="white"/>
</svg>
